<?xml version="1.0"?>
<mxfile host="Electron" modified="2022-06-09T17:40:54.769Z" agent="5.0 (X11; Linux x86_64) AppleWebKit/537.36 (KHTML, like Gecko) draw.io/18.1.3 Chrome/100.0.4896.143 Electron/18.2.3 Safari/537.36" etag="oP0XFOdi1HMObQ5HQ5Xq" version="18.1.3">
  <diagram id="Ab_HJlUbcXu70TP0DJyg" name="Page-1">
    <mxGraphModel dx="2" dy="1" grid="1" gridSize="10" guides="1" tooltips="1" connect="1" arrows="1" fold="1" page="1" pageScale="1" pageWidth="850" pageHeight="1100" math="0" shadow="0">
      <root>
        <mxCell id="0"/>
        <mxCell id="1" parent="0"/>
        <mxCell id="8padgd3RvuHBSXOlQchk-1" value="" style="rounded=0;whiteSpace=wrap;html=1;fillColor=#f5f5f5;fontColor=#333333;strokeColor=#666666;sketch=1;" parent="1" vertex="1">
          <mxGeometry x="80" y="80" width="440" height="40" as="geometry"/>
        </mxCell>
        <mxCell id="8padgd3RvuHBSXOlQchk-2" value="&#x5BA2;&#x6237;&#x6307;&#x4EE4;&lt;br&gt;Guest Insts" style="rounded=0;whiteSpace=wrap;html=1;fillColor=#f8cecc;strokeColor=#b85450;sketch=1;" parent="1" vertex="1">
          <mxGeometry x="120" y="80" width="80" height="40" as="geometry"/>
        </mxCell>
        <mxCell id="8padgd3RvuHBSXOlQchk-3" value="(&#x7FFB;&#x8BD1;&#x51FA;&#x6765;&#x7684;)&#x5BBF;&#x4E3B;&#x6307;&#x4EE4;&lt;br&gt;Host Insts" style="rounded=0;whiteSpace=wrap;html=1;fillColor=#dae8fc;strokeColor=#6c8ebf;sketch=1;" parent="1" vertex="1">
          <mxGeometry x="360" y="80" width="120" height="40" as="geometry"/>
        </mxCell>
        <mxCell id="8padgd3RvuHBSXOlQchk-4" value="" style="endArrow=classic;html=1;exitX=0.25;exitY=0;exitDx=0;exitDy=0;entryX=0.75;entryY=0;entryDx=0;entryDy=0;curved=1;sketch=1;fillColor=#f8cecc;strokeColor=#b85450;" parent="1" source="8padgd3RvuHBSXOlQchk-2" target="8padgd3RvuHBSXOlQchk-2" edge="1">
          <mxGeometry width="50" height="50" relative="1" as="geometry">
            <mxPoint x="90" y="60" as="sourcePoint"/>
            <mxPoint x="140" y="10" as="targetPoint"/>
            <Array as="points">
              <mxPoint x="140" y="60"/>
              <mxPoint x="180" y="60"/>
            </Array>
          </mxGeometry>
        </mxCell>
        <mxCell id="8padgd3RvuHBSXOlQchk-5" value="Jump *GReg" style="text;html=1;align=center;verticalAlign=middle;resizable=0;points=[];autosize=1;strokeColor=none;fillColor=none;sketch=1;" parent="1" vertex="1">
          <mxGeometry x="120" y="40" width="80" height="20" as="geometry"/>
        </mxCell>
        <mxCell id="8padgd3RvuHBSXOlQchk-7" value="" style="endArrow=classic;html=1;curved=1;exitX=0.25;exitY=0;exitDx=0;exitDy=0;entryX=0.5;entryY=0;entryDx=0;entryDy=0;sketch=1;fillColor=#dae8fc;strokeColor=#6c8ebf;" parent="1" source="8padgd3RvuHBSXOlQchk-3" target="8padgd3RvuHBSXOlQchk-1" edge="1">
          <mxGeometry width="50" height="50" relative="1" as="geometry">
            <mxPoint x="300" y="240" as="sourcePoint"/>
            <mxPoint x="350" y="190" as="targetPoint"/>
            <Array as="points">
              <mxPoint x="390" y="60"/>
              <mxPoint x="320" y="60"/>
            </Array>
          </mxGeometry>
        </mxCell>
        <mxCell id="8padgd3RvuHBSXOlQchk-8" value="" style="endArrow=classic;html=1;curved=1;exitX=0.5;exitY=0;exitDx=0;exitDy=0;sketch=1;fillColor=#dae8fc;strokeColor=#6c8ebf;" parent="1" source="8padgd3RvuHBSXOlQchk-1" edge="1">
          <mxGeometry width="50" height="50" relative="1" as="geometry">
            <mxPoint x="275" y="170" as="sourcePoint"/>
            <mxPoint x="450" y="80" as="targetPoint"/>
            <Array as="points">
              <mxPoint x="290" y="50"/>
              <mxPoint x="450" y="50"/>
            </Array>
          </mxGeometry>
        </mxCell>
        <mxCell id="8padgd3RvuHBSXOlQchk-9" value="0" style="text;html=1;align=left;verticalAlign=middle;resizable=0;points=[];autosize=1;strokeColor=none;fillColor=none;sketch=1;" parent="1" vertex="1">
          <mxGeometry x="80" y="60" width="20" height="20" as="geometry"/>
        </mxCell>
        <mxCell id="8padgd3RvuHBSXOlQchk-10" value="2^48 B" style="text;html=1;align=left;verticalAlign=middle;resizable=0;points=[];autosize=1;strokeColor=none;fillColor=none;sketch=1;" parent="1" vertex="1">
          <mxGeometry x="520" y="60" width="50" height="20" as="geometry"/>
        </mxCell>
        <mxCell id="8padgd3RvuHBSXOlQchk-11" value="&lt;font color=&quot;#ffffff&quot;&gt;&#x7559;&#x767D;&lt;/font&gt;" style="rounded=0;whiteSpace=wrap;html=1;fillColor=none;strokeColor=none;sketch=1;" parent="1" vertex="1">
          <mxGeometry x="30" y="60" width="50" height="20" as="geometry"/>
        </mxCell>
        <mxCell id="8padgd3RvuHBSXOlQchk-14" value="&lt;font color=&quot;#000000&quot;&gt;&#x67E5;&lt;br&gt;*GReg&lt;br&gt;&#x5730;&lt;br&gt;&#x5740;&lt;/font&gt;" style="text;html=1;align=center;verticalAlign=middle;resizable=0;points=[];autosize=1;strokeColor=none;fillColor=none;fontColor=#FFFFFF;rotation=0;sketch=1;" parent="1" vertex="1">
          <mxGeometry x="275" y="80" width="50" height="60" as="geometry"/>
        </mxCell>
      </root>
    </mxGraphModel>
  </diagram>
</mxfile>
